<svg width="51" height="54" viewBox="0 0 51 54" fill="none" xmlns="http://www.w3.org/2000/svg">
<path d="M33.45 27.0001C33.45 29.1881 32.6124 31.2866 31.1215 32.8337C29.6306 34.3809 27.6085 35.2501 25.5 35.2501C23.3915 35.2501 21.3694 34.3809 19.8785 32.8337C18.3876 31.2866 17.55 29.1881 17.55 27.0001C17.55 26.5299 17.5977 26.0706 17.6798 25.6251H14.9V36.6169C14.9 37.3814 15.4962 38.0001 16.2329 38.0001H34.7697C35.1228 37.9994 35.4611 37.8533 35.7105 37.594C35.9599 37.3347 36.1 36.9832 36.1 36.6169V25.6251H33.3202C33.4023 26.0706 33.45 26.5299 33.45 27.0001V27.0001ZM25.5 32.5001C26.1962 32.4999 26.8855 32.3574 27.5286 32.0808C28.1717 31.8042 28.7561 31.3988 29.2482 30.8878C29.7404 30.3768 30.1307 29.7703 30.397 29.1027C30.6632 28.4352 30.8002 27.7198 30.8 26.9973C30.7998 26.2749 30.6625 25.5596 30.396 24.8922C30.1294 24.2248 29.7387 23.6184 29.2463 23.1077C28.7539 22.597 28.1694 22.1919 27.5262 21.9156C26.8829 21.6393 26.1935 21.4972 25.4973 21.4973C24.0913 21.4977 22.7431 22.0777 21.7491 23.1096C20.7552 24.1416 20.197 25.541 20.1973 27.0001C20.1977 28.4592 20.7566 29.8583 21.751 30.8898C22.7454 31.9212 24.094 32.5005 25.5 32.5001V32.5001ZM31.86 21.2251H35.0373C35.2484 21.2251 35.4509 21.1383 35.6004 20.9836C35.75 20.829 35.8343 20.6192 35.835 20.4001V17.1028C35.835 16.8833 35.751 16.6728 35.6014 16.5175C35.4518 16.3623 35.2489 16.2751 35.0373 16.2751H31.86C31.6484 16.2751 31.4456 16.3623 31.296 16.5175C31.1464 16.6728 31.0623 16.8833 31.0623 17.1028V20.4001C31.065 20.8538 31.4227 21.2251 31.86 21.2251V21.2251ZM25.5 0.600098C18.7529 0.600098 12.2821 3.38152 7.5112 8.33248C2.74028 13.2834 0.0599976 19.9984 0.0599976 27.0001C0.0599976 34.0018 2.74028 40.7168 7.5112 45.6677C12.2821 50.6187 18.7529 53.4001 25.5 53.4001C28.8408 53.4001 32.1489 52.7172 35.2355 51.3905C38.322 50.0638 41.1265 48.1192 43.4888 45.6677C45.8511 43.2163 47.725 40.3059 49.0035 37.1029C50.282 33.8999 50.94 30.467 50.94 27.0001C50.94 23.5332 50.282 20.1003 49.0035 16.8973C47.725 13.6943 45.8511 10.7839 43.4888 8.33248C41.1265 5.88101 38.322 3.9364 35.2355 2.60968C32.1489 1.28295 28.8408 0.600098 25.5 0.600098V0.600098ZM38.75 37.6949C38.75 39.3751 37.425 40.7501 35.8058 40.7501H15.1941C13.575 40.7501 12.25 39.3751 12.25 37.6949V16.3053C12.25 14.6251 13.575 13.2501 15.1941 13.2501H35.8058C37.425 13.2501 38.75 14.6251 38.75 16.3053V37.6949V37.6949Z" fill="#5993FF"/>
</svg>
