<svg width="243" height="42" viewBox="0 0 243 42" fill="none" xmlns="http://www.w3.org/2000/svg">
<g clip-path="url(#clip0)">
<path d="M25.96 1V15.75H11.92V1H1V40.42H11.92V25.44H25.96V40.42H36.88V1H25.96Z" fill="#5993FF"/>
<path d="M84.5831 34.73L90.6931 27.5C94.2925 30.4886 98.8052 32.1575 103.483 32.23C106.483 32.23 108.043 31.23 108.043 29.52V29.38C108.043 27.7 106.743 26.85 101.333 25.55C92.9431 23.65 86.4731 21.28 86.4731 13.22V13.12C86.4631 5.78 92.2631 0.5 101.723 0.5C108.433 0.5 113.663 2.29 117.943 5.73L112.483 13.45C109.304 11.0519 105.463 9.69335 101.483 9.56C98.8231 9.56 97.4831 10.63 97.4831 12.11V12.21C97.4831 14.01 98.8431 14.81 104.343 16.04C113.343 18.04 118.993 20.93 118.993 28.31V28.43C118.993 36.49 112.633 41.28 103.063 41.28C96.3101 41.4254 89.7371 39.0957 84.5831 34.73" fill="#5993FF"/>
<path d="M124.263 21.13V21.02C124.263 9.5 133.043 0.5 144.973 0.5C153.033 0.5 158.203 3.85 161.693 8.66L153.483 15C151.223 12.25 148.643 10.4 144.873 10.4C139.353 10.4 135.463 15.12 135.463 20.87V20.98C135.463 26.9 139.353 31.51 144.873 31.51C148.983 31.51 151.403 29.59 153.763 26.72L161.983 32.58C158.273 37.75 153.253 41.5 144.583 41.5C141.898 41.5434 139.232 41.0458 136.744 40.0369C134.256 39.0279 131.996 37.5283 130.1 35.6274C128.204 33.7264 126.71 31.4631 125.707 28.9724C124.704 26.4817 124.213 23.8146 124.263 21.13" fill="#5993FF"/>
<path d="M232.193 1.31V22.15L215.973 1.31H205.773V40.73H216.593V19.1L233.483 40.73H242.993V1.31H232.193Z" fill="#5993FF"/>
<path d="M171.793 1.01999L181.143 24.58H171.413L168.143 33.63H184.713L187.403 40.73H199.903L183.683 1.01999H171.793Z" fill="#5993FF"/>
<path d="M69.2531 1.31L44.6931 28.01V40.73H55.6031V30.47L59.6131 26.1L69.5731 40.73H82.6431L67.2131 18.2L82.1331 1.31H69.2531Z" fill="#5993FF"/>
</g>
<defs>
<clipPath id="clip0">
<rect width="242.41" height="41" fill="white" transform="translate(0.583069 0.5)"/>
</clipPath>
</defs>
</svg>
