<svg width="431" height="113" viewBox="0 0 431 113" fill="none" xmlns="http://www.w3.org/2000/svg">
<path d="M88.871 91.6346H79.45V90.2885H88.871V91.6346ZM104.887 86.25H101.253V94.3269C101.253 95.2692 101.387 95.8077 101.791 96.2115C102.195 96.4808 102.599 96.75 103.137 96.75C103.81 96.75 104.348 96.6154 104.752 96.3462L104.887 97.6923C104.23 97.88 103.55 97.9707 102.868 97.9615C102.46 97.9782 102.051 97.9328 101.657 97.8269C101.296 97.6622 100.977 97.4199 100.721 97.1174C100.465 96.8149 100.279 96.4596 100.176 96.0769C99.907 95.6731 99.907 95.1346 99.907 94.5962V86.1154H97.2153V84.7692H99.907V81.2692H101.253V84.9039H105.021V86.25H104.887ZM119.018 91.3654C119.018 90.5577 119.018 89.8846 118.749 89.2115C118.521 88.5794 118.164 88.0017 117.7 87.515C117.237 87.0283 116.677 86.6434 116.057 86.3846C115.375 86.1038 114.642 85.9663 113.904 85.9808C113.096 85.9808 112.289 85.9808 111.751 86.3846C111.078 86.6539 110.539 87.0577 110.135 87.4615C109.597 88 109.328 88.5385 109.059 89.2115C108.543 90.6012 108.543 92.1296 109.059 93.5192C109.287 94.1514 109.644 94.7291 110.107 95.2158C110.571 95.7025 111.13 96.0874 111.751 96.3462C112.289 96.6154 113.096 96.75 113.904 96.75C114.642 96.7644 115.375 96.627 116.057 96.3462C116.677 96.0874 117.237 95.7025 117.7 95.2158C118.164 94.7291 118.521 94.1514 118.749 93.5192C119.018 92.8462 119.153 92.1731 119.153 91.3654H119.018ZM120.633 91.3654C120.633 92.3077 120.499 93.25 120.095 94.0577C119.616 95.2951 118.761 96.3507 117.65 97.0754C116.539 97.8001 115.229 98.1572 113.904 98.0962C112.827 98.0962 112.02 97.9615 111.212 97.5577C110.399 97.2548 109.656 96.7878 109.031 96.1857C108.406 95.5836 107.912 94.8592 107.578 94.0577C107.309 93.25 107.175 92.3077 107.175 91.3654C107.175 90.4231 107.309 89.4808 107.578 88.6731C107.912 87.8716 108.406 87.1472 109.031 86.5451C109.656 85.9429 110.399 85.4759 111.212 85.1731C112.02 84.7692 112.827 84.6346 113.904 84.6346C114.846 84.6346 115.788 84.7692 116.596 85.1731C117.384 85.4913 118.1 85.9652 118.702 86.5666C119.303 87.168 119.777 87.8844 120.095 88.6731C120.499 89.4808 120.633 90.4231 120.633 91.3654ZM125.478 91.3654C125.478 92.1731 125.613 92.7115 125.882 93.5192C126.151 94.1923 126.42 94.8654 126.824 95.2692L128.439 96.3462C129.112 96.75 129.785 96.8846 130.592 96.8846C131.649 96.8927 132.681 96.5736 133.549 95.971C134.416 95.3684 135.076 94.5119 135.438 93.5192C135.965 92.1318 135.965 90.5989 135.438 89.2115C135.094 88.2075 134.438 87.3394 133.567 86.7341C132.695 86.1287 131.653 85.8176 130.592 85.8462C129.785 85.8462 129.247 85.9808 128.439 86.25C127.83 86.5387 127.289 86.9512 126.848 87.4611C126.408 87.9711 126.079 88.5672 125.882 89.2115C125.613 89.8846 125.478 90.5577 125.478 91.3654V91.3654ZM135.572 95.2692C135.034 96.2115 134.226 96.8846 133.419 97.4231C132.477 97.8269 131.535 98.0962 130.458 98.0962C128.702 98.1067 127.012 97.4304 125.747 96.2115L124.402 94.0577C123.932 92.7955 123.81 91.4305 124.046 90.1048C124.283 88.7791 124.87 87.541 125.747 86.5192C126.36 85.8969 127.095 85.4082 127.905 85.0839C128.716 84.7595 129.585 84.6066 130.458 84.6346C131.535 84.6346 132.477 84.9038 133.419 85.3077C134.348 85.8394 135.098 86.6361 135.572 87.5962V76.9615H137.187V97.8269H135.707V95.1346L135.572 95.2692ZM146.339 96.8846C147.012 96.8846 147.685 96.75 148.223 96.4808L149.569 95.4038L150.376 94.0577L150.646 92.1731V91.2308H147.281C146.474 91.2308 145.801 91.5 145.128 91.7692C144.455 91.9039 143.916 92.1731 143.513 92.5769C143.109 92.9808 142.974 93.5192 142.974 94.1923C142.974 94.7308 142.974 95.1346 143.243 95.5385L143.916 96.3462L144.993 96.75L146.204 96.8846H146.339ZM145.935 98.2308L144.455 97.9615C143.968 97.8235 143.511 97.5952 143.109 97.2885C142.571 96.8846 142.167 96.4808 141.898 95.9423C141.628 95.5385 141.494 95 141.494 94.3269C141.494 93.3846 141.763 92.5769 142.167 92.0385L143.916 90.6923L146.474 90.1538L149.3 90.0192H150.646V89.4808C150.646 88.1346 150.242 87.3269 149.704 86.7885C149.031 86.1154 148.089 85.8462 147.012 85.8462C146.295 85.8206 145.581 85.9385 144.911 86.1928C144.241 86.447 143.628 86.8326 143.109 87.3269L142.301 86.3846C142.84 85.8462 143.647 85.4423 144.32 85.0385C145.85 84.5351 147.501 84.5351 149.031 85.0385C149.704 85.0385 150.242 85.4423 150.646 85.8462C151.049 86.1154 151.453 86.6538 151.588 87.1923L151.992 89.2115V94.8654C152.017 95.8574 152.107 96.8466 152.261 97.8269H150.915C150.773 97.0258 150.683 96.2165 150.646 95.4038C150.167 96.2464 149.469 96.944 148.627 97.4231C147.804 97.8788 146.876 98.1109 145.935 98.0962V98.2308ZM156.837 104.423C156.333 104.403 155.835 104.312 155.356 104.154L155.491 102.808L156.837 103.077C157.51 103.077 158.048 102.808 158.317 102.404C158.721 102 158.99 101.462 159.259 100.788L160.336 97.8269L154.952 84.9039H156.702L161.143 96.2115L165.315 84.9039H166.93L160.74 101.462L159.394 103.75C158.721 104.288 158.048 104.558 156.971 104.558L156.837 104.423ZM180.927 96.8846C181.735 96.8846 182.273 96.75 182.812 96.4808C183.35 96.2115 183.888 95.8077 184.157 95.4038C184.561 95 184.83 94.4615 184.965 94.0577L185.234 92.1731V91.2308H182.004C181.197 91.2308 180.658 91.5 179.851 91.7692C179.312 91.9039 178.774 92.1731 178.37 92.5769C177.966 92.9808 177.697 93.5192 177.697 94.1923C177.697 94.7308 177.697 95.1346 177.966 95.5385L178.774 96.3462L179.851 96.75L180.927 96.8846V96.8846ZM180.524 98.2308L179.178 97.9615C178.644 97.8399 178.14 97.6109 177.697 97.2885C177.159 96.8846 176.89 96.4808 176.621 95.9423C176.351 95.5385 176.217 95 176.217 94.3269C176.217 93.3846 176.351 92.5769 176.89 92.0385C177.294 91.5 177.966 91.0962 178.639 90.6923L181.062 90.1538L184.023 90.0192H185.369V89.4808C185.369 88.1346 184.965 87.3269 184.292 86.7885C183.619 86.1154 182.812 85.8462 181.6 85.8462C180.199 85.8305 178.848 86.3617 177.832 87.3269L177.024 86.3846C177.563 85.8462 178.236 85.4423 179.043 85.0385C180.573 84.5351 182.224 84.5351 183.754 85.0385C184.292 85.0385 184.83 85.4423 185.234 85.8462C185.772 86.1154 186.042 86.6538 186.311 87.1923L186.715 89.2115V94.8654C186.692 95.8545 186.737 96.844 186.849 97.8269H185.503C185.403 97.0232 185.358 96.2137 185.369 95.4038C184.89 96.2464 184.192 96.944 183.35 97.4231C182.527 97.8788 181.599 98.1109 180.658 98.0962L180.524 98.2308ZM193.04 84.9039C193.138 85.7979 193.183 86.6968 193.175 87.5962L193.982 86.25L195.059 85.4423C195.874 84.9507 196.8 84.6729 197.751 84.6346C198.693 84.6346 199.366 84.7692 200.038 85.0385C200.577 85.3077 201.115 85.7115 201.384 86.1154C201.923 86.6538 202.192 87.1923 202.326 87.8654C202.596 88.5385 202.596 89.2115 202.596 90.0192V97.8269H201.25V90.5577L200.981 88.6731C200.884 88.1956 200.701 87.7395 200.442 87.3269C200.173 86.7885 199.769 86.5192 199.366 86.25C198.827 85.9808 198.289 85.8462 197.481 85.8462C196.967 85.8849 196.464 86.022 196.001 86.25C195.463 86.3846 194.924 86.7885 194.655 87.1923C194.117 87.7308 193.848 88.2692 193.578 88.9423L193.309 91.2308V97.8269H191.694V87.8654C191.68 86.877 191.635 85.8894 191.56 84.9039H192.905H193.04ZM208.383 91.3654C208.383 92.1731 208.383 92.7115 208.786 93.5192C208.921 94.1923 209.325 94.8654 209.729 95.2692C210.216 95.7776 210.801 96.1826 211.449 96.4602C212.096 96.7377 212.793 96.882 213.497 96.8846C214.553 96.8927 215.586 96.5736 216.453 95.971C217.321 95.3684 217.981 94.5119 218.342 93.5192C218.611 92.8462 218.611 92.1731 218.611 91.3654C218.611 90.5577 218.611 89.8846 218.342 89.2115C217.998 88.2075 217.343 87.3394 216.471 86.7341C215.6 86.1287 214.558 85.8176 213.497 85.8462C212.689 85.8462 212.017 85.9808 211.344 86.25C210.71 86.5234 210.142 86.9291 209.678 87.4398C209.214 87.9506 208.864 88.5546 208.652 89.2115L208.383 91.3654V91.3654ZM218.477 95.2692C217.932 96.1336 217.177 96.8461 216.283 97.3404C215.389 97.8347 214.384 98.0947 213.362 98.0962C211.607 98.1067 209.916 97.4304 208.652 96.2115C207.979 95.5385 207.575 94.8654 207.306 94.0577C206.63 92.3264 206.63 90.4043 207.306 88.6731C207.777 87.458 208.611 86.4181 209.695 85.6952C210.779 84.9724 212.06 84.602 213.362 84.6346C214.305 84.6346 215.381 84.9038 216.189 85.3077C217.168 85.8178 217.967 86.6167 218.477 87.5962V76.9615H219.957V97.8269H218.611V95.1346H218.477V95.2692ZM237.857 86.25H234.223V94.3269C234.223 95.2692 234.358 95.8077 234.761 96.2115C235.165 96.4808 235.569 96.75 236.107 96.75C236.78 96.75 237.319 96.6154 237.857 96.3462V97.6923C237.201 97.88 236.521 97.9707 235.838 97.9615C235.475 97.9653 235.113 97.9201 234.761 97.8269C234.365 97.7099 234.002 97.5034 233.698 97.2233C233.395 96.9431 233.16 96.597 233.012 96.2115C232.743 95.8077 232.743 95.2692 232.743 94.7308V86.25H230.051V84.9039H232.743V81.2692H234.089V84.9039H237.857V86.25V86.25ZM252.123 91.3654C252.123 90.5577 251.988 89.8846 251.719 89.2115C251.491 88.5794 251.134 88.0017 250.671 87.515C250.207 87.0283 249.648 86.6434 249.028 86.3846C248.345 86.1038 247.612 85.9663 246.874 85.9808C246.067 85.9808 245.394 85.9808 244.721 86.3846C244.048 86.6539 243.509 87.0577 243.106 87.4615C242.567 88 242.298 88.5385 242.029 89.2115C241.514 90.6012 241.514 92.1296 242.029 93.5192C242.377 94.5102 243.038 95.3612 243.912 95.9439C244.786 96.5266 245.826 96.8095 246.874 96.75C247.612 96.7644 248.345 96.627 249.028 96.3462C249.648 96.0874 250.207 95.7025 250.671 95.2158C251.134 94.7291 251.491 94.1514 251.719 93.5192C251.988 92.8462 252.123 92.1731 252.123 91.3654V91.3654ZM253.603 91.3654C253.603 92.3077 253.469 93.25 253.065 94.0577C252.57 95.2834 251.711 96.3279 250.604 97.05C249.497 97.7721 248.195 98.1373 246.874 98.0962C245.932 98.0962 244.99 97.9615 244.182 97.5577C243.394 97.2395 242.678 96.7655 242.076 96.1642C241.475 95.5628 241.001 94.8464 240.683 94.0577C240.279 93.25 240.145 92.3077 240.145 91.3654C240.145 90.4231 240.279 89.4808 240.683 88.6731C241.001 87.8844 241.475 87.168 242.076 86.5666C242.678 85.9652 243.394 85.4913 244.182 85.1731C244.99 84.7692 245.932 84.6346 246.874 84.6346C247.816 84.6346 248.758 84.7692 249.566 85.1731C250.803 85.6515 251.858 86.5068 252.583 87.618C253.307 88.7292 253.664 90.0401 253.603 91.3654V91.3654ZM257.91 88C257.944 86.9682 257.944 85.9356 257.91 84.9039H259.256C259.309 85.8005 259.309 86.6995 259.256 87.5962H259.391C259.737 86.7144 260.348 85.9618 261.14 85.4423L262.486 84.7692L263.832 84.6346C264.774 84.6346 265.581 84.9038 266.254 85.3077C266.927 85.8462 267.466 86.6539 267.869 87.7308C268.226 86.8098 268.855 86.0198 269.673 85.4664C270.491 84.9131 271.458 84.6229 272.445 84.6346C273.253 84.6346 274.06 84.7692 274.599 85.0385C275.184 85.2676 275.708 85.6303 276.129 86.0977C276.549 86.5651 276.855 87.1243 277.021 87.7308L277.29 90.0192V97.8269H275.81V90.5577C275.81 89.8846 275.81 89.2115 275.541 88.6731C275.541 88.1346 275.272 87.5962 275.002 87.3269C274.733 86.7885 274.33 86.5192 273.926 86.25L272.311 85.8462C271.701 85.8338 271.097 85.9753 270.556 86.2576C270.015 86.54 269.554 86.954 269.215 87.4615L268.542 89.0769C268.368 89.7359 268.277 90.4144 268.273 91.0962V97.8269H266.793V90.2885L266.658 88.5385C266.658 88 266.389 87.5962 266.12 87.1923C265.89 86.8042 265.566 86.4802 265.178 86.25L263.563 85.8462L261.948 86.25L260.602 87.1923L259.794 88.9423C259.525 89.6154 259.525 90.2885 259.525 91.2308V97.8269H257.91V87.8654V88ZM293.441 91.3654C293.441 90.5577 293.306 89.8846 293.037 89.2115C292.809 88.5794 292.452 88.0017 291.988 87.515C291.525 87.0283 290.965 86.6434 290.345 86.3846C289.663 86.1038 288.93 85.9663 288.192 85.9808C287.497 85.9657 286.806 86.0889 286.159 86.3431C285.512 86.5973 284.922 86.9775 284.423 87.4615C283.885 88 283.616 88.5385 283.347 89.2115C282.831 90.6012 282.831 92.1296 283.347 93.5192C283.575 94.1514 283.932 94.7291 284.395 95.2158C284.859 95.7025 285.418 96.0874 286.038 96.3462C286.577 96.6154 287.384 96.75 288.192 96.75C288.93 96.7644 289.663 96.627 290.345 96.3462C290.965 96.0874 291.525 95.7025 291.988 95.2158C292.452 94.7291 292.809 94.1514 293.037 93.5192C293.306 92.8462 293.441 92.1731 293.441 91.3654V91.3654ZM294.921 91.3654C294.921 92.3077 294.787 93.25 294.383 94.0577C293.888 95.2834 293.029 96.3279 291.922 97.05C290.815 97.7721 289.513 98.1373 288.192 98.0962C287.115 98.0962 286.308 97.9615 285.5 97.5577C284.687 97.2548 283.944 96.7878 283.319 96.1857C282.694 95.5836 282.2 94.8592 281.866 94.0577C281.597 93.25 281.463 92.3077 281.463 91.3654C281.463 90.4231 281.597 89.4808 281.866 88.6731C282.2 87.8716 282.694 87.1472 283.319 86.5451C283.944 85.9429 284.687 85.4759 285.5 85.1731C286.308 84.7692 287.115 84.6346 288.192 84.6346C289.134 84.6346 290.076 84.7692 290.884 85.1731C291.691 85.4423 292.499 85.9808 293.037 86.5192C294.252 87.84 294.925 89.5704 294.921 91.3654V91.3654ZM299.362 88C299.306 86.9653 299.216 85.9327 299.093 84.9039H300.574C300.63 85.8004 300.63 86.6996 300.574 87.5962H300.708C301.039 86.6397 301.686 85.8247 302.542 85.2862C303.399 84.7476 304.414 84.5178 305.419 84.6346H305.957L305.822 86.1154H305.419C305.195 86.1042 304.97 86.1042 304.746 86.1154C303.535 86.1154 302.592 86.5192 301.92 87.4615C301.112 88.2692 300.708 89.4808 300.708 91.2308V97.8269H299.362V87.8654V88ZM308.918 88C308.948 86.9682 308.948 85.9357 308.918 84.9039H310.264C310.32 85.8004 310.32 86.6996 310.264 87.5962H310.398C310.729 86.6397 311.376 85.8247 312.233 85.2862C313.089 84.7476 314.104 84.5178 315.109 84.6346H315.647L315.513 86.1154H314.974C314.795 86.1082 314.615 86.1082 314.436 86.1154C313.225 86.1154 312.283 86.5192 311.61 87.4615C310.802 88.2692 310.398 89.4808 310.398 91.2308V97.8269H308.918V87.8654V88ZM328.971 91.3654C328.971 90.5577 328.971 89.8846 328.702 89.2115C328.474 88.5794 328.117 88.0017 327.653 87.515C327.19 87.0283 326.63 86.6434 326.01 86.3846C325.328 86.1038 324.595 85.9663 323.857 85.9808C323.049 85.9808 322.376 85.9808 321.704 86.3846C321.031 86.6539 320.492 87.0577 320.089 87.4615C319.55 88 319.281 88.5385 319.012 89.2115C318.496 90.6012 318.496 92.1296 319.012 93.5192C319.24 94.1514 319.597 94.7291 320.061 95.2158C320.524 95.7025 321.083 96.0874 321.704 96.3462C322.376 96.6154 323.049 96.75 323.857 96.75C324.595 96.7644 325.328 96.627 326.01 96.3462C326.63 96.0874 327.19 95.7025 327.653 95.2158C328.117 94.7291 328.474 94.1514 328.702 93.5192C328.971 92.8462 329.106 92.1731 329.106 91.3654H328.971ZM330.586 91.3654C330.586 92.3077 330.452 93.25 330.182 94.0577C329.842 94.8551 329.345 95.5758 328.721 96.1771C328.097 96.7784 327.358 97.2479 326.549 97.5577C325.741 97.9615 324.799 98.0962 323.857 98.0962C322.915 98.0962 321.973 97.9615 321.165 97.5577C320.377 97.2395 319.66 96.7655 319.059 96.1642C318.458 95.5628 317.984 94.8464 317.666 94.0577C317.262 93.25 317.128 92.3077 317.128 91.3654C317.128 90.4231 317.262 89.4808 317.666 88.6731C317.977 87.8804 318.449 87.1604 319.051 86.5582C319.653 85.9559 320.373 85.4844 321.165 85.1731C321.973 84.7692 322.915 84.6346 323.857 84.6346C324.799 84.6346 325.741 84.7692 326.549 85.1731C327.358 85.4828 328.097 85.9523 328.721 86.5536C329.345 87.1549 329.842 87.8757 330.182 88.6731C330.452 89.4808 330.586 90.4231 330.586 91.3654ZM334.758 84.9039L337.988 95.9423L341.622 84.9039H343.237L346.871 95.9423L350.101 84.9039H351.716L347.679 97.8269H346.064L342.43 86.9231L338.796 97.6923H337.046L333.143 84.9039H334.758V84.9039ZM65.5878 17.8654C63.8381 17.8654 58.8585 25 54.8209 33.8846C41.497 59.7308 40.9586 50.3077 40.9586 50.0385C41.0932 47.8846 41.3624 45.7308 41.7662 43.7115C44.1887 30.25 50.918 22.1731 50.918 22.1731C45.8037 15.4423 43.3812 18.6731 43.3812 18.6731C38.2669 25.2692 35.5752 32.2692 34.2294 38.8654L32.8835 41.5577C21.8475 62.6923 21.9821 50.5769 21.9821 50.3077C21.9821 48.0192 22.2513 45.8654 22.655 43.9808C25.0776 30.3846 31.8069 22.4423 31.8069 22.4423C26.6926 15.7115 24.2701 18.8077 24.2701 18.8077C14.8491 30.9231 13.5033 44.9231 14.1762 54.3462C14.1762 54.3462 14.7145 60.8077 18.6175 60.4038C24.2701 60.4038 28.3076 55.8269 33.1527 49.3654V54.0769C33.1527 54.0769 32.8835 60 37.594 60.5385C47.015 61.3462 72.9899 22.5769 72.9899 22.5769C72.9899 22.5769 69.7599 17.8654 65.5878 17.8654V17.8654ZM74.605 37.6538C74.7396 37.6538 76.0854 37.25 76.22 38.3269C76.4892 41.6923 69.6253 45.4615 66.1261 47.3462C67.2028 43.5769 70.5674 38.4615 74.605 37.6538V37.6538ZM71.5095 56.2308C66.799 56.6346 64.7802 52.7308 65.8569 48.9615C74.4704 50.3077 80.3921 40.0769 79.3155 37.6538C78.9117 36.0385 77.1621 33.4808 74.0666 33.4808C67.0682 33.4808 59.2622 44.6539 59.5314 51.5192C59.5314 51.5192 58.7239 60.6731 67.8757 61.3462C77.0275 61.8846 81.6034 47.3462 81.6034 47.3462C81.6034 47.3462 76.22 55.6923 71.5095 56.2308ZM243.106 67.6731C240.414 67.6731 243.644 60.9423 245.528 57.3077C246.74 61.0769 245.797 67.6731 243.106 67.6731ZM272.042 36.8462C272.176 36.8462 273.387 36.5769 273.657 37.6538C273.926 40.75 267.466 44.3846 264.101 46.1346C265.178 42.6346 268.139 37.7885 272.176 36.8462H272.042ZM269.081 54.4808C262.755 54.75 263.697 48.5577 263.697 47.75C271.907 48.9615 277.425 39.2692 276.617 36.9808C276.079 35.5 274.464 32.9423 271.638 32.9423C265.043 32.9423 257.776 43.3077 257.776 49.7692C256.161 51.7885 254.007 53.8077 252.123 53.5385C250.777 53.2692 250.643 50.8462 251.45 47.4808L252.123 46.1346C255.757 39.4039 260.198 33.8846 260.198 33.8846C258.045 30.5192 254.276 30.6538 254.276 30.6538C249.63 36.0677 245.901 42.2067 243.24 48.8269C241.76 50.9808 238.934 54.2115 236.78 53.6731C234.089 53.2692 235.973 42.9038 242.567 35.3654C242.567 35.3654 240.683 32.9423 238.126 32.9423C236.646 32.9423 231.801 41.0192 230.858 48.0192C228.274 51.9416 225.248 55.5549 221.841 58.7885C220.765 59.4615 220.765 58.1154 221.034 56.6346C222.11 52.3269 224.533 44.6538 229.378 35.5C233.012 28.6346 237.588 23.1154 237.588 23.1154C235.3 19.8846 231.666 19.8846 231.666 19.8846C224.129 27.9615 218.207 43.4423 215.92 52.7308C215.92 52.7308 211.882 64.0385 216.996 64.0385C224.264 64.0385 228.974 53.6731 230.724 49.2308C230.32 53.1346 231.397 56.5 234.896 57.7115C237.453 58.5192 239.472 56.7692 241.087 54.3462C238.787 59.5637 237.596 65.2019 237.588 70.9039C237.857 71.9808 239.607 76.2885 246.201 72.25C251.585 69.1539 249.97 61.4808 248.22 56.3654C248.758 56.9038 249.566 57.3077 250.239 57.7115C253.603 58.6538 256.161 55.0192 257.776 51.7885C258.179 54.4808 259.525 58.9231 265.716 59.3269C274.33 59.8654 278.771 46.1346 278.771 46.1346C278.771 46.1346 273.657 54.2115 269.081 54.4808V54.4808ZM150.78 53.2692C148.089 52.7308 149.838 42.5 156.433 34.8269C156.433 34.8269 154.549 32.4038 151.992 32.5385C151.319 32.5385 150.107 33.8846 148.761 36.3077C147.685 34.4231 145.666 32.4038 142.84 32.5385C138.533 32.8077 132.477 40.8846 130.054 48.2885C128.035 51.1154 123.325 57.5769 121.441 58.5192C119.826 59.4615 121.171 54.75 121.441 54.3462C122.787 50.1731 127.901 42.6346 126.824 38.7308C125.747 35.6346 122.787 35.6346 122.787 35.6346C122.787 35.6346 119.556 35.2308 113.366 43.5769C113.995 42.0414 114.136 40.3493 113.769 38.7308C112.962 35.7692 109.732 35.7692 109.732 35.7692C109.732 35.7692 106.502 35.3654 99.907 44.3846C102.464 39.2692 105.694 35.2308 105.694 35.2308C102.195 31.4615 100.58 33.3462 100.58 33.3462C94.1198 40.2115 91.2935 53.5385 91.6973 58.9231C91.6973 58.9231 94.7928 59.8654 95.8694 58.9231L96.8115 56.5L97.0807 55.9615C97.8882 53.9423 100.445 47.75 103.406 44.25C103.675 44.1154 106.098 41.2885 107.04 42.2308C108.251 43.5769 104.617 47.8846 102.599 54.0769C100.58 60.1346 107.713 58.6539 107.713 58.6539C107.713 58.6539 112.558 48.5577 116.326 44.25C116.461 43.9808 118.749 41.5577 119.96 42.0962C121.575 42.9038 117.538 47.75 115.519 53.9423C115.519 53.9423 111.481 63.6346 116.596 63.6346C122.517 63.6346 126.824 56.5 129.112 51.5192C128.304 56.2308 129.247 60.1346 133.688 60.6731C141.763 61.3462 143.513 51.25 143.513 51.25C143.513 51.25 139.206 57.4423 136.783 55.9615C134.765 54.6154 139.475 38.0577 147.55 38.4615C144.455 44.9231 142.167 54.8846 148.896 57.3077C154.683 59.0577 158.317 46.5385 158.317 46.5385C158.317 46.5385 153.876 53.8077 150.78 53.2692" fill="#DFEAFF"/>
<path d="M199.096 37.6538C199.096 37.6538 200.442 37.25 200.711 38.3269C200.981 41.6923 194.117 45.4615 190.617 47.3462C191.694 43.5769 195.059 38.4615 199.096 37.6538V37.6538ZM196.001 56.2308C191.425 56.2308 190.079 52.4615 190.348 48.9615C198.962 50.3077 204.749 40.0769 203.807 37.6538C203.268 36.0385 201.653 33.4808 198.558 33.4808C191.829 33.4808 184.427 43.7115 184.023 50.5769C181.735 53.6731 178.774 57.3077 177.563 57.9808C175.14 59.3269 174.871 53.4038 174.871 53.4038C174.871 53.4038 174.871 48.1538 176.89 44.6538C182.677 41.4231 187.657 34.2885 179.043 32.5385C174.198 31.4615 170.43 35.6346 168.007 40.2115C168.815 38.4615 169.622 36.5769 170.699 34.6923C174.333 27.9615 178.909 22.4423 178.909 22.4423C176.621 19.0769 172.987 19.0769 172.987 19.0769C161.951 30.9231 154.414 57.9808 156.567 59.5962C159.125 61.6154 161.547 59.5962 161.547 59.5962C161.547 59.5962 162.085 55.9615 163.97 50.1731C163.97 50.1731 172.718 35.2308 177.159 36.0385C181.735 36.9808 171.237 45.4615 170.968 46.4038C170.968 46.4038 168.815 49.2308 168.815 54.8846C168.68 57.5769 168.815 63.2308 172.718 63.0962C177.697 63.0962 181.6 57.9808 184.023 53.4038C184.292 56.0962 185.772 60.9423 192.367 61.3462C201.519 61.8846 206.095 47.3462 206.095 47.3462C206.095 47.3462 200.711 56.2308 196.001 56.2308V56.2308ZM249.566 23.3846C247.412 20.8269 244.855 21.5 244.855 21.5L239.472 29.5769C240.952 30.9231 243.509 30.5192 243.509 30.6538C244.317 28.0962 249.566 23.3846 249.566 23.25V23.3846ZM325.337 52.1923C322.646 51.6539 324.395 41.4231 331.125 33.75C331.125 33.75 329.106 31.4615 326.683 31.4615C326.01 31.4615 324.664 32.9423 323.453 35.2308C322.242 33.4808 320.223 31.3269 317.397 31.5962C313.09 31.7308 307.034 39.9423 304.611 47.4808C302.192 51.1273 299.345 54.4715 296.132 57.4423C295.056 58.1154 295.056 56.7692 295.325 55.1538C297.588 46.6395 301.031 38.4836 305.553 30.9231H310.668C323.184 31.3269 322.107 21.7692 322.242 21.5C319.146 24.3269 314.167 25.1346 309.187 25.2692L311.879 21.7692C309.591 18.4038 305.957 18.5385 305.957 18.5385C304.207 20.4231 302.592 22.5769 300.977 25.1346H294.248C288.461 26.2115 288.865 30.3846 288.865 30.3846C290.076 29.8462 293.037 30.1154 298.017 30.3846C294.655 37.0313 292.037 44.0288 290.211 51.25C290.211 51.25 286.173 62.6923 291.287 62.5577C297.209 62.5577 301.381 55.8269 303.669 50.8462C302.862 55.4231 303.938 59.0577 308.38 59.7308C316.32 60.4039 318.07 50.1731 318.07 50.1731C318.07 50.1731 313.763 56.5 311.475 55.0192C309.456 53.6731 314.032 36.9808 322.242 37.3846C319.146 43.8462 316.724 53.9423 323.453 56.2308C329.24 57.9808 332.874 45.4615 332.874 45.4615C332.874 45.4615 328.433 52.7308 325.337 52.1923" fill="#DFEAFF"/>
<path d="M335.7 55.6923V55.8269C335.431 55.9615 335.162 56.0962 334.758 55.8269C333.951 54.2115 335.431 50.5769 336.508 48.6923C337.046 50.7115 338.527 52.7308 335.835 55.6923H335.7ZM351.312 34.1539C348.755 26.75 331.259 34.4231 333.951 43.1731C334.489 44.7885 336.643 47.4808 335.835 47.8846C332.74 49.7692 328.837 58.9231 334.22 60C338.796 60.9423 340.949 59.7308 342.564 57.0385C343.641 55.1539 343.91 53.9423 343.372 51.3846C341.218 42.5 337.854 35.2308 343.237 34.8269C348.621 34.4231 345.66 41.8269 345.66 41.8269C345.66 41.8269 353.869 41.4231 351.312 34.0192" fill="#DFEAFF"/>
<path d="M403.128 30.9231C403.128 29.5769 405.281 26.0769 405.416 26.3462C405.55 27.0192 404.07 29.7115 403.128 30.9231ZM391.553 34.9615C391.553 34.9615 393.034 34.5577 393.168 35.7692C393.438 39.1346 386.574 42.7692 383.074 44.6539C384.151 41.0192 387.516 35.9039 391.553 34.9615V34.9615ZM406.761 56.5C403.666 56.0962 409.453 44.3846 417.125 35.6346C417.125 35.6346 415.779 32.2692 411.607 33.0769C411.607 33.0769 407.973 34.1539 405.819 33.0769C406.742 31.448 407.508 29.7352 408.107 27.9615C408.646 25.2692 403.531 22.5769 401.647 27.5577C400.571 30.3846 400.167 33.2115 401.647 34.9615C401.647 35.3654 401.243 36.0385 400.974 36.8462C399.44 40.9954 397.642 45.0421 395.591 48.9615C393.438 51.25 390.88 53.2692 388.458 53.5385C383.882 54.0769 382.267 50.0385 382.805 46.2692C391.419 47.6154 397.206 37.3846 396.264 34.9615C395.725 33.4808 394.11 30.7885 391.015 30.9231C384.689 30.9231 377.556 40.0769 376.614 46.9423C374.999 49.0962 372.308 52.1923 370.154 51.7885C367.463 51.25 368.135 41.8269 374.73 34.2885C374.73 34.2885 372.846 31.8654 370.289 31.8654C368.674 31.8654 364.367 39.9423 363.694 46.6731C361.675 49.6346 356.965 56.0962 355.215 56.9039C354.139 57.5769 354.139 56.2308 354.408 54.6154C356.629 46.1081 360.026 37.9525 364.502 30.3846H369.75C382.132 30.7885 381.056 21.2308 381.19 20.9615C378.229 23.7885 373.25 24.5962 368.27 24.7308L370.962 21.2308C368.674 17.8654 365.04 17.8654 365.04 17.8654C363.29 19.75 361.541 22.0385 360.06 24.5962C357.369 24.4615 354.946 24.3269 353.331 24.5962C347.409 25.6731 347.948 29.8462 347.948 29.8462C349.024 29.3077 351.985 29.5769 357.099 29.8462C353.738 36.4929 351.12 43.4903 349.294 50.7115C349.294 50.7115 345.256 62.1539 350.37 62.0192C357.099 62.0192 361.675 52.8654 363.694 48.1539C363.694 51.6539 364.905 54.6154 368.27 55.8269C371.904 56.9039 374.865 52.3269 376.345 48.8269C376.345 48.8269 375.672 58.1154 384.824 58.6539C391.015 59.0577 395.053 52.7308 397.071 48.4231C398.295 46.7677 399.375 45.0114 400.301 43.1731L404.07 36.4423C405.012 36.8462 406.358 36.9808 407.838 36.9808C402.724 44.1154 395.995 58.25 404.608 61.2115C411.337 63.2308 415.375 49.0962 415.375 49.0962C415.375 49.0962 410.395 57.1731 406.761 56.6346" fill="#DFEAFF"/>
</svg>
