<svg width="53" height="52" viewBox="0 0 53 52" fill="none" xmlns="http://www.w3.org/2000/svg">
<path d="M26.5 0.1875C12.2455 0.1875 0.6875 11.7455 0.6875 26C0.6875 40.2545 12.2455 51.8125 26.5 51.8125C40.7545 51.8125 52.3125 40.2545 52.3125 26C52.3125 11.7455 40.7545 0.1875 26.5 0.1875ZM38.905 19.6448C38.9223 19.9156 38.9223 20.1979 38.9223 20.4745C38.9223 28.9327 32.4807 38.6758 20.7095 38.6758C17.0796 38.6758 13.7147 37.6214 10.88 35.8064C11.3985 35.8641 11.894 35.8871 12.4241 35.8871C15.4202 35.8871 18.1743 34.873 20.3695 33.1561C17.5578 33.0984 15.1955 31.2547 14.3889 28.7195C15.3741 28.8636 16.2614 28.8636 17.2755 28.6043C15.8277 28.3102 14.5264 27.5239 13.5927 26.379C12.659 25.2342 12.1504 23.8014 12.1533 22.324V22.2434C13.0003 22.7216 13.9971 23.0154 15.0399 23.0558C14.1633 22.4715 13.4443 21.6799 12.9468 20.7512C12.4493 19.8226 12.1886 18.7855 12.1879 17.7319C12.1879 16.5393 12.499 15.4503 13.0579 14.5054C14.6649 16.4836 16.6701 18.1015 18.9433 19.254C21.2165 20.4065 23.7068 21.0677 26.2522 21.1947C25.3477 16.8446 28.5973 13.3242 32.5037 13.3242C34.3475 13.3242 36.0068 14.0963 37.1765 15.3408C38.6227 15.07 40.0055 14.5284 41.2385 13.8024C40.7603 15.2832 39.7577 16.5335 38.4268 17.3229C39.7174 17.1846 40.9619 16.8273 42.1143 16.3261C41.2442 17.6052 40.1553 18.7402 38.905 19.6448V19.6448Z" fill="#5993FF"/>
</svg>
