<svg width="144" height="110" viewBox="0 0 144 110" fill="none" xmlns="http://www.w3.org/2000/svg">
<path d="M11.6418 26.2119C11.6418 26.2119 8.49156 37.1564 10.1159 49.0646C11.3957 58.4948 13.9552 66.7548 16.0225 68.1315C17.5484 69.164 17.9914 71.4355 17.2531 72.468C16.4655 73.5693 16.5148 75.359 17.2531 78.0435C18.0406 80.728 16.8101 91.3972 18.4836 94.5635C20.1572 97.7987 23.5535 107.917 23.5535 107.917L28.525 106.609C28.525 106.609 23.7504 94.5635 23.3566 92.2232C22.9629 89.814 24.4887 79.8332 24.4887 79.8332C24.4887 79.8332 27.9343 88.6438 28.525 92.3608C29.1156 96.0779 31.5767 108.261 31.5767 108.261H39.6491L36.3513 98.8312C36.3513 98.8312 33.4964 88.162 34.2347 86.5788C35.0223 84.9957 42.2579 74.0511 42.061 69.7835C42.061 69.7835 55.1049 81.8982 69.2316 78.4565C83.3584 75.0148 85.8195 71.9173 85.8195 71.9173C85.8195 71.9173 87.1485 80.728 87.936 83.4125C88.7236 86.097 85.278 105.715 86.607 108.33C87.936 110.946 91.4308 109.845 93.0551 109.294C94.6302 108.743 94.138 106.609 93.0551 104.476C91.9722 102.342 94.7779 91.7414 95.3193 93.1869C96.1069 95.3207 95.91 100.827 96.6975 102.755C97.4359 104.613 99.9462 108.674 103.244 108.743C104.967 108.743 106.493 108.468 106.296 107.435C106.099 106.403 101.915 102.066 100.783 98.3494C99.6509 94.6324 97.1405 80.1773 98.4695 78.5941C99.7985 77.011 101.324 74.3265 103.047 77.7682C104.77 81.2098 112.596 93.8064 134.943 85.4775C134.943 85.4775 134.746 83.4813 133.122 82.2423C131.498 81.0033 132.236 80.4527 132.777 80.7968C133.319 81.141 135.731 83.7567 137.06 83.5502C138.389 83.3437 142.08 75.772 142.08 74.2576C142.08 72.7433 139.816 70.9536 137.306 68.751C134.795 66.5483 130.415 60.491 130.464 59.1831C130.562 57.8064 130.71 56.5674 132.925 56.1544C135.14 55.8103 139.472 56.9116 140.801 53.4011C142.13 49.8906 143.459 46.7931 144 45.4853C144 45.4853 135.78 44.5216 132.531 45.3476C132.531 45.3476 133.073 45.5541 131.104 41.4929C129.184 37.4317 119.93 14.9232 103.047 7.62682C92.6121 3.15265 68.641 -0.495529 56.4831 0.0551395C44.6698 0.605808 38.517 1.98248 29.8539 6.25015C24.3903 9.00349 13.6107 21.1182 12.2817 21.3935C10.9034 21.6689 9.033 16.7128 6.47346 15.8868C3.91391 14.992 1.64969 14.0283 0.665251 19.0532C-0.319191 24.0092 -0.368412 27.0379 1.60047 34.4719C3.52013 41.9059 3.52013 41.9059 3.52013 41.9059C3.52013 41.9059 7.75323 36.8122 7.26101 34.3342C6.76879 31.8562 5.09524 30.8237 5.39057 27.6574C5.63668 24.491 4.89835 20.1545 6.71957 21.7377C8.39312 23.4585 9.57445 28.0704 11.6418 26.2119Z" fill="#000D20"/>
</svg>
