<svg width="51" height="54" viewBox="0 0 51 54" fill="none" xmlns="http://www.w3.org/2000/svg">
<path d="M29.7479 26.5409L23.7961 23.6589C23.2767 23.4086 22.85 23.6891 22.85 24.2858V29.7144C22.85 30.3111 23.2767 30.5916 23.7961 30.3414L29.7453 27.4594C30.2674 27.2064 30.2673 26.7939 29.7479 26.5409ZM25.5 0.600098C11.4497 0.600098 0.0599976 12.4196 0.0599976 27.0001C0.0599976 41.5806 11.4497 53.4001 25.5 53.4001C39.5503 53.4001 50.94 41.5806 50.94 27.0001C50.94 12.4196 39.5503 0.600098 25.5 0.600098ZM25.5 37.7251C12.4779 37.7251 12.25 36.5069 12.25 27.0001C12.25 17.4934 12.4779 16.2751 25.5 16.2751C38.5221 16.2751 38.75 17.4934 38.75 27.0001C38.75 36.5069 38.5221 37.7251 25.5 37.7251Z" fill="#5993FF"/>
</svg>
